<?xml version="1.0" encoding="UTF-8"?>
<svg id="Layer_1" xmlns="http://www.w3.org/2000/svg" xmlns:xlink="http://www.w3.org/1999/xlink" version="1.1" viewBox="0 0 113.4 47.8">
  <!-- Generator: Adobe Illustrator 29.0.0, SVG Export Plug-In . SVG Version: 2.1.0 Build 186)  -->
  <defs>
    <style>
      .st0 {
        clip-path: url(#clippath-1);
      }

      .st1 {
        fill: #fff;
      }

      .st2 {
        clip-path: url(#clippath);
      }
    </style>
    <clipPath id="clippath">
      <path class="st1" d="M54.3,19.7c0,.6.2,1,.2,1.5,0,1.6.9,2.9,2.2,3.8,1.4.9,2.1,2.2,2,3.9,0,.4-.2.6-.5.8-1.2.5-2.3,0-3.1-.7-1.9-1.7-2.8-3.9-2.7-6.4,0-1.2.5-2.2,1.9-2.8h0Z"/>
    </clipPath>
    <clipPath id="clippath-1">
      <path class="st1" d="M59.5,28.8c0-.5,0-.9-.1-1.3,0-1.2-.6-2.2-1.6-2.8-2-1.1-2.6-2.9-2.8-5,0-.5.2-.7.6-.7.9-.1,1.8.1,2.5.7,2.2,1.7,3.1,4,2.8,6.8-.1.9-.5,1.7-1.3,2.4h0Z"/>
    </clipPath>
  </defs>
  <g>
    <g>
      <path class="st1" d="M6.6,39.7c0,.4,0,.8-.2,1.1s-.3.6-.6.9-.5.4-.9.6c-.3.2-.7.2-1.1.3l2.7,4.2c0,0,0,.2,0,.2s0,.1-.2.2c0,0-.1,0-.2,0s-.1,0-.2-.1l-2.8-4.5H1.2v4.3c0,0,0,.1,0,.2s-.1,0-.2,0-.1,0-.2,0,0-.1,0-.2v-9.8c0,0,0-.1,0-.2,0,0,.1,0,.2,0h2.7c.4,0,.8,0,1.2.2s.7.3.9.6.5.6.6.9c.2.3.2.7.2,1.1h0ZM1.2,37.3v4.7h2.5c.4,0,.7,0,1-.2.3-.1.6-.3.8-.5.2-.2.4-.5.5-.7.1-.3.2-.6.2-.9s0-.6-.2-.9-.3-.5-.5-.7-.5-.4-.8-.5c-.3-.1-.6-.2-1-.2H1.2Z"/>
      <path class="st1" d="M6.3,47.7c-.1,0-.2,0-.3,0-.2,0-.3-.2-.5-.4l-2.6-4.2h-1.1v3.7c0,.2-.1.5-.3.7-.2.2-.4.2-.6.2s-.5,0-.6-.2C.1,47.3,0,47.1,0,46.8v-9.8C0,36.8.1,36.6.3,36.4c.2-.2.4-.2.6-.2h2.7c.5,0,1,0,1.4.3s.8.4,1.2.7c.3.3.6.7.8,1.1.2.4.3.9.3,1.4h0c0,.5,0,.9-.3,1.3-.2.4-.4.8-.7,1.1-.3.3-.7.5-1.1.7,0,0-.2,0-.3.1l2.2,3.4s0,0,0,0c.1.2.2.5,0,.8h0c0,.3-.3.5-.5.5-.1,0-.2,0-.3,0h0ZM1.8,41.3h1.8c.3,0,.5,0,.7-.1.2,0,.4-.2.6-.4.2-.2.3-.3.4-.5,0-.2.1-.4.1-.6s0-.5-.1-.7c0-.2-.2-.4-.4-.5-.2-.2-.3-.3-.6-.3-.2,0-.5-.1-.8-.1h-1.8s0,3.3,0,3.3Z"/>
    </g>
    <g>
      <path class="st1" d="M11.4,43.7c0,.4,0,.8.2,1.2.1.4.4.7.6.9.3.3.6.5.9.6s.8.2,1.2.2.8,0,1.2-.2.7-.4.9-.6c.3-.3.5-.6.6-1,.1-.4.2-.8.2-1.2v-6.6c0,0,0-.1,0-.2s.1,0,.2,0,.1,0,.2,0,0,.1,0,.2v6.7c0,.5,0,.9-.3,1.3s-.4.8-.7,1.1-.7.6-1.1.7-.9.3-1.4.3-.9,0-1.4-.3-.8-.4-1.1-.8c-.3-.3-.6-.7-.8-1.1s-.3-.9-.3-1.4v-6.6c0,0,0-.1,0-.2s.1,0,.2,0,.1,0,.2,0,0,.1,0,.2v6.6h0Z"/>
      <path class="st1" d="M14.4,47.8c-.6,0-1.1-.1-1.6-.3-.5-.2-.9-.5-1.3-.9-.4-.4-.7-.8-.9-1.3-.2-.5-.3-1-.3-1.6v-6.6c0-.2.1-.5.3-.7s.4-.3.6-.3.4,0,.6.2c.2.2.3.4.3.7v6.6h0c0,.4,0,.6.2.9.1.3.3.5.5.7.2.2.5.4.7.5.3.1.6.2.9.2s.6,0,.9-.2.5-.3.7-.5c.2-.2.4-.5.5-.7.1-.3.2-.6.2-.9v-6.6c0-.2.1-.5.3-.7.2-.2.4-.2.6-.2s.5,0,.6.3c.2.2.3.4.3.7v6.7c0,.6-.1,1.1-.3,1.6-.2.5-.5.9-.9,1.3s-.8.7-1.3.9c-.5.2-1,.3-1.6.3h0Z"/>
    </g>
    <g>
      <path class="st1" d="M23.1,37.8v9c0,0,0,.1,0,.2s-.1,0-.2,0-.1,0-.2,0c0,0,0-.1,0-.2v-9.8c0,0,0-.1,0-.2,0,0,.1,0,.2,0s0,0,0,0h0s0,0,0,0l6.3,9.1v-9c0,0,0-.1,0-.2,0,0,.1,0,.2,0s.1,0,.2,0,0,.1,0,.2v9.8c0,0,0,.1,0,.2s-.1,0-.2,0h0s-.1,0-.1,0c0,0,0,0,0,0l-6.3-9.1h0Z"/>
      <path class="st1" d="M29.6,47.7h0c-.2,0-.4,0-.5-.2,0,0,0,0,0,0,0,0,0,0-.1-.2l-5.1-7.4v6.9c0,.2-.1.5-.3.7-.2.2-.4.2-.6.2s-.5,0-.6-.2c-.2-.2-.3-.4-.3-.7v-9.8c0-.3.1-.5.3-.7.2-.2.4-.2.6-.2s.2,0,.2,0c0,0,.2,0,.2,0h0s0,0,0,0c0,0,.1,0,.2.1,0,0,0,0,0,0l5.1,7.4v-6.9c0-.2.1-.5.3-.7.2-.2.4-.3.6-.3s.5,0,.7.3c.2.2.2.4.2.6v9.8c0,.2-.1.5-.3.7-.2.2-.4.2-.6.2h0ZM29.9,46.7h0ZM22.5,37.4h0Z"/>
    </g>
    <g>
      <path class="st1" d="M34.3,42c0,.7.1,1.3.4,1.8.2.6.6,1.1,1,1.5.4.4.9.8,1.5,1,.6.2,1.2.4,1.8.4s1.1,0,1.5-.3c.5-.2.9-.4,1.3-.7.4-.3.7-.7.9-1.1s.4-.9.5-1.5h-3.1c0,0-.1,0-.2,0s0-.1,0-.2,0-.1,0-.2.1,0,.2,0h3.4c0,0,.2,0,.2,0s0,.1,0,.2c0,.6-.3,1.2-.5,1.7-.3.5-.6,1-1,1.4s-.9.7-1.5.9-1.2.3-1.8.3-1.4-.1-2-.4-1.2-.7-1.7-1.1c-.5-.5-.8-1-1.1-1.7s-.4-1.3-.4-2,.1-1.4.4-2c.3-.6.6-1.2,1.1-1.7s1-.9,1.7-1.1,1.3-.4,2.1-.4,1.3.1,2,.4,1.2.7,1.7,1.2c0,0,0,.1,0,.2,0,0,0,.1,0,.2,0,0-.1,0-.2,0s-.1,0-.2,0c-.5-.5-1-.8-1.6-1-.6-.2-1.2-.3-1.8-.3s-1.2.1-1.8.4-1.1.6-1.5,1-.8.9-1,1.5c-.2.6-.4,1.2-.4,1.9h0Z"/>
      <path class="st1" d="M39,47.8c-.8,0-1.6-.2-2.3-.5s-1.3-.7-1.9-1.3-1-1.2-1.2-1.9c-.3-.7-.5-1.5-.5-2.3s.2-1.5.5-2.3c.3-.7.7-1.3,1.2-1.9.5-.5,1.2-1,1.9-1.3.7-.3,1.5-.5,2.3-.5s1.5.2,2.2.4c.7.3,1.4.7,2,1.3.2.2.3.4.3.7,0,.2,0,.4-.2.6,0,0,0,0,0,0-.2.2-.4.2-.6.2-.2,0-.5,0-.7-.3-.4-.4-.9-.7-1.4-.9-1-.4-2.2-.4-3.1,0-.5.2-.9.5-1.3.9-.4.4-.7.8-.9,1.3-.2.5-.3,1-.3,1.6s0,1.1.3,1.6c.2.5.5.9.9,1.3s.8.7,1.3.9,1,.3,1.6.3.9,0,1.3-.2c.4-.2.8-.4,1.1-.6.3-.3.6-.6.8-1,0-.2.2-.3.2-.5h-2.2c-.2,0-.5,0-.7-.3-.2-.2-.2-.4-.2-.6s0-.5.2-.6c.2-.2.4-.3.7-.3h3.4c.2,0,.4,0,.6.2.2.2.3.4.3.7h0c0,.7-.3,1.4-.6,2s-.7,1.1-1.2,1.6c-.5.4-1,.8-1.7,1-.6.2-1.3.4-2,.4h0ZM42.8,38.2h0Z"/>
    </g>
    <g>
      <path class="st1" d="M60.8,43.6h-5.1l-1.4,3.3c0,0,0,.1-.1.1,0,0-.1,0-.2,0,0,0-.1,0-.1-.1,0,0,0-.1,0-.2l4.2-9.8c0-.1.1-.2.2-.2s.2,0,.2.2l4.2,9.8c0,0,0,.1,0,.2s0,.1-.1.1c0,0-.1,0-.2,0s-.1,0-.2-.1l-1.4-3.3h0ZM56,43.1h4.6l-2.3-5.4s-2.3,5.4-2.3,5.4Z"/>
      <path class="st1" d="M62.5,47.7c-.1,0-.2,0-.3,0-.2,0-.4-.2-.5-.5,0,0,0,0,0,0l-1.3-3h-4.2l-1.3,3c0,.2-.3.4-.5.5-.2,0-.5,0-.7,0-.3-.1-.5-.3-.5-.6,0-.2,0-.5,0-.7l4.2-9.7c.2-.3.5-.5.8-.5s.7.2.8.6l4.2,9.7s0,0,0,0c0,.2,0,.4,0,.6,0,.3-.3.5-.5.6-.1,0-.2,0-.4,0h0ZM57,42.4h2.7l-1.3-3.1s-1.3,3.1-1.3,3.1Z"/>
    </g>
    <g>
      <path class="st1" d="M72.8,39.7c0,.4,0,.8-.2,1.1s-.3.6-.6.9-.5.4-.9.6c-.3.2-.7.2-1.1.3l2.7,4.2c0,0,0,.2,0,.2,0,0,0,.1-.2.2,0,0-.1,0-.2,0s-.1,0-.2-.1l-2.8-4.5h-2.1v4.3c0,0,0,.1,0,.2s-.1,0-.2,0-.1,0-.2,0,0-.1,0-.2v-9.8c0,0,0-.1,0-.2,0,0,.1,0,.2,0h2.7c.4,0,.8,0,1.2.2s.7.3.9.6.5.6.6.9c.2.3.2.7.2,1.1h0ZM67.4,37.3v4.7h2.5c.4,0,.7,0,1-.2.3-.1.6-.3.8-.5.2-.2.4-.5.5-.7.1-.3.2-.6.2-.9s0-.6-.2-.9-.3-.5-.5-.7-.5-.4-.8-.5c-.3-.1-.6-.2-1-.2h-2.4Z"/>
      <path class="st1" d="M72.5,47.7c-.1,0-.2,0-.3,0-.2,0-.3-.2-.5-.4l-2.6-4.2h-1.1v3.7c0,.2,0,.5-.3.7-.2.2-.4.2-.6.2s-.5,0-.6-.2c-.2-.2-.3-.4-.3-.7v-9.8c0-.2,0-.5.3-.7.2-.2.4-.2.6-.2h2.7c.5,0,1,0,1.4.3s.8.4,1.2.7c.3.3.6.7.8,1.1.2.4.3.9.3,1.4h0c0,.5,0,.9-.3,1.3-.2.4-.4.8-.7,1.1-.3.3-.7.5-1.1.7,0,0-.2,0-.3.1l2.2,3.4s0,0,0,0c.1.2.2.5,0,.8h0c0,.3-.3.5-.5.5-.1,0-.2,0-.3,0h0ZM68,41.3h1.8c.3,0,.5,0,.7-.1.2,0,.4-.2.6-.4.2-.2.3-.3.4-.5,0-.2.1-.4.1-.6s0-.5-.1-.7c0-.2-.2-.4-.4-.5-.2-.2-.3-.3-.6-.3-.2,0-.5-.1-.8-.1h-1.8s0,3.3,0,3.3Z"/>
    </g>
    <g>
      <path class="st1" d="M81.9,36.7c.5,0,.9,0,1.4.2.4.1.9.3,1.2.5s.7.5,1.1.8c.3.3.6.7.8,1.1.2.4.4.8.5,1.2s.2.9.2,1.4,0,1-.2,1.4c-.1.5-.3.9-.5,1.2-.2.4-.5.7-.8,1.1s-.7.6-1.1.8-.8.4-1.2.5-.9.2-1.4.2c-.7,0-1.4-.1-2-.4s-1.2-.7-1.7-1.1-.8-1-1.1-1.7c-.3-.6-.4-1.3-.4-2s.1-1.4.4-2c.3-.6.6-1.2,1.1-1.7s1-.8,1.7-1.1c.6-.3,1.3-.4,2-.4h0ZM81.9,37.3c-.7,0-1.3.1-1.8.4s-1.1.6-1.5,1c-.4.4-.8.9-1,1.5-.2.6-.4,1.2-.4,1.8s.1,1.3.4,1.8c.2.6.6,1.1,1,1.5.4.4.9.8,1.5,1s1.2.4,1.8.4,1.3-.1,1.8-.4,1.1-.6,1.5-1c.4-.4.8-.9,1-1.5.2-.6.4-1.2.4-1.8s-.1-1.3-.4-1.8c-.2-.6-.6-1.1-1-1.5s-.9-.8-1.5-1c-.6-.2-1.2-.4-1.8-.4Z"/>
      <path class="st1" d="M81.9,47.8c-.8,0-1.6-.2-2.3-.5-.7-.3-1.3-.7-1.9-1.3s-.9-1.2-1.2-1.9c-.3-.7-.5-1.5-.5-2.3s.2-1.6.5-2.3c.3-.7.7-1.3,1.2-1.9.5-.5,1.2-1,1.9-1.2.7-.3,1.5-.5,2.3-.5h0c.5,0,1,0,1.5.2.5.1,1,.3,1.4.6s.8.6,1.2.9c.4.3.7.8.9,1.2.3.4.5.9.6,1.4.1.5.2,1,.2,1.6s0,1.1-.2,1.6c-.1.5-.3,1-.6,1.4-.3.4-.6.8-.9,1.2-.4.4-.8.7-1.2.9s-.9.5-1.4.6-1,.2-1.6.2h0ZM81.9,37.9c-.6,0-1.1.1-1.6.3-.5.2-.9.5-1.3.9s-.7.8-.9,1.3c-.2.5-.3,1-.3,1.6s.1,1.1.3,1.6c.2.5.5.9.9,1.3.4.4.8.7,1.3.9s1,.3,1.6.3,1.1,0,1.6-.3c.5-.2.9-.5,1.3-.9.4-.4.7-.8.9-1.3s.3-1,.3-1.6,0-1.1-.3-1.6c-.2-.5-.5-.9-.9-1.3-.4-.4-.8-.7-1.3-.9-.5-.2-1-.3-1.6-.3h0Z"/>
    </g>
    <g>
      <path class="st1" d="M95.9,36.7c.5,0,.9,0,1.4.2.4.1.9.3,1.2.5s.7.5,1.1.8c.3.3.6.7.8,1.1.2.4.4.8.5,1.2s.2.9.2,1.4,0,1-.2,1.4c-.1.5-.3.9-.5,1.2-.2.4-.5.7-.8,1.1s-.7.6-1.1.8-.8.4-1.2.5-.9.2-1.4.2c-.7,0-1.4-.1-2-.4s-1.2-.7-1.7-1.1c-.5-.5-.8-1-1.1-1.7-.3-.6-.4-1.3-.4-2s.1-1.4.4-2c.3-.6.6-1.2,1.1-1.7s1-.8,1.7-1.1c.6-.3,1.3-.4,2-.4h0ZM95.9,37.3c-.7,0-1.3.1-1.8.4s-1.1.6-1.5,1c-.4.4-.8.9-1,1.5-.2.6-.4,1.2-.4,1.8s.1,1.3.4,1.8c.2.6.6,1.1,1,1.5s.9.8,1.5,1,1.2.4,1.8.4,1.3-.1,1.8-.4,1.1-.6,1.5-1c.4-.4.8-.9,1-1.5.2-.6.4-1.2.4-1.8s-.1-1.3-.4-1.8c-.2-.6-.6-1.1-1-1.5s-.9-.8-1.5-1c-.6-.2-1.2-.4-1.8-.4Z"/>
      <path class="st1" d="M95.9,47.8c-.8,0-1.6-.2-2.3-.5-.7-.3-1.3-.7-1.9-1.3s-.9-1.2-1.2-1.9c-.3-.7-.5-1.5-.5-2.3s.2-1.6.5-2.3c.3-.7.7-1.3,1.2-1.9.5-.5,1.2-1,1.9-1.2.7-.3,1.5-.5,2.3-.5h0c.5,0,1,0,1.5.2.5.1,1,.3,1.4.6s.8.6,1.2.9c.4.3.7.8.9,1.2.3.4.5.9.6,1.4.1.5.2,1,.2,1.6s0,1.1-.2,1.6c-.1.5-.3,1-.6,1.4-.3.4-.6.8-.9,1.2-.4.4-.8.7-1.2.9s-.9.5-1.4.6-1,.2-1.6.2h0ZM95.9,37.9c-.6,0-1.1.1-1.6.3-.5.2-.9.5-1.3.9s-.7.8-.9,1.3c-.2.5-.3,1-.3,1.6s.1,1.1.3,1.6c.2.5.5.9.9,1.3s.8.7,1.3.9,1,.3,1.6.3,1.1,0,1.6-.3c.5-.2.9-.5,1.3-.9.4-.4.7-.8.9-1.3s.3-1,.3-1.6,0-1.1-.3-1.6c-.2-.5-.5-.9-.9-1.3-.4-.4-.8-.7-1.3-.9-.5-.2-1-.3-1.6-.3h0Z"/>
    </g>
    <g>
      <path class="st1" d="M106,37.8v9c0,0,0,.1,0,.2s-.1,0-.2,0-.1,0-.2,0,0-.1,0-.2v-9.8c0,0,0-.1,0-.2,0,0,.1,0,.2,0s0,0,0,0h0s0,0,0,0l6.3,9.1v-9c0,0,0-.1,0-.2,0,0,.1,0,.2,0s.1,0,.2,0,0,.1,0,.2v9.8c0,0,0,.1,0,.2s-.1,0-.2,0h0c0,0-.1,0-.2,0,0,0,0,0,0,0l-6.3-9.1h0Z"/>
      <path class="st1" d="M112.5,47.7h0c-.2,0-.4,0-.6-.2,0,0,0,0,0,0,0,0,0,0-.1-.2l-5.1-7.4v6.9c0,.2,0,.5-.3.7-.2.2-.4.2-.6.2s-.5,0-.6-.2c-.2-.2-.3-.4-.3-.7v-9.8c0-.3,0-.5.3-.7.2-.2.4-.2.6-.2s.2,0,.2,0c0,0,.2,0,.2,0h0s0,0,0,0c0,0,.1,0,.2.1,0,0,0,0,0,0l5.1,7.4v-6.9c0-.2,0-.5.3-.7.2-.2.4-.3.6-.3s.5,0,.7.3c.2.2.2.4.2.6v9.8c0,.2,0,.5-.3.7-.2.2-.4.2-.6.2h0ZM112.8,46.7h0ZM112.8,46.7h0ZM105.4,37.4h0s0,0,0,0ZM105.4,37.4h0ZM105.4,37.4h0Z"/>
    </g>
  </g>
  <g>
    <g>
      <g>
        <path class="st1" d="M54.3,19.7c0,.6.2,1,.2,1.5,0,1.6.9,2.9,2.2,3.8,1.4.9,2.1,2.2,2,3.9,0,.4-.2.6-.5.8-1.2.5-2.3.1-3.1-.7-1.9-1.7-2.8-3.9-2.7-6.4,0-1.2.5-2.2,1.9-2.8h0Z"/>
        <g>
          <path class="st1" d="M54.3,19.7c0,.6.2,1,.2,1.5,0,1.6.9,2.9,2.2,3.8,1.4.9,2.1,2.2,2,3.9,0,.4-.2.6-.5.8-1.2.5-2.3,0-3.1-.7-1.9-1.7-2.8-3.9-2.7-6.4,0-1.2.5-2.2,1.9-2.8h0Z"/>
          <g class="st2">
            <g>
              <polygon class="st1" points="52.5 19.7 52.3 26 52.3 19.7 52.5 19.7"/>
              <polygon class="st1" points="52.7 19.7 52.4 30.1 52.3 30.1 52.3 26 52.5 19.7 52.7 19.7"/>
              <polygon class="st1" points="52.9 19.7 52.6 30.1 52.4 30.1 52.7 19.7 52.9 19.7"/>
              <polygon class="st1" points="53.1 19.7 52.8 30.1 52.6 30.1 52.9 19.7 53.1 19.7"/>
              <polygon class="st1" points="53.3 19.7 52.9 30.1 52.8 30.1 53.1 19.7 53.3 19.7"/>
              <polygon class="st1" points="53.5 19.7 53.1 30.1 52.9 30.1 53.3 19.7 53.5 19.7"/>
              <polygon class="st1" points="53.7 19.7 53.3 30.1 53.1 30.1 53.5 19.7 53.7 19.7"/>
              <polygon class="st1" points="53.8 19.7 53.5 30.1 53.3 30.1 53.7 19.7 53.8 19.7"/>
              <polygon class="st1" points="54 19.7 53.7 30.1 53.5 30.1 53.8 19.7 54 19.7"/>
              <polygon class="st1" points="54.2 19.7 53.9 30.1 53.7 30.1 54 19.7 54.2 19.7"/>
              <polygon class="st1" points="54.4 19.7 54.1 30.1 53.9 30.1 54.2 19.7 54.4 19.7"/>
              <polygon class="st1" points="54.6 19.7 54.2 30.1 54.1 30.1 54.4 19.7 54.6 19.7"/>
              <polygon class="st1" points="54.8 19.7 54.4 30.1 54.2 30.1 54.6 19.7 54.8 19.7"/>
              <polygon class="st1" points="55 19.7 54.6 30.1 54.4 30.1 54.8 19.7 55 19.7"/>
              <polygon class="st1" points="55.1 19.7 54.8 30.1 54.6 30.1 55 19.7 55.1 19.7"/>
              <polygon class="st1" points="55.3 19.7 55 30.1 54.8 30.1 55.1 19.7 55.3 19.7"/>
              <polygon class="st1" points="55.5 19.7 55.2 30.1 55 30.1 55.3 19.7 55.5 19.7"/>
              <polygon class="st1" points="55.7 19.7 55.4 30.1 55.2 30.1 55.5 19.7 55.7 19.7"/>
              <polygon class="st1" points="55.9 19.7 55.5 30.1 55.4 30.1 55.7 19.7 55.9 19.7"/>
              <polygon class="st1" points="56.1 19.7 55.7 30.1 55.5 30.1 55.9 19.7 56.1 19.7"/>
              <polygon class="st1" points="56.3 19.7 55.9 30.1 55.7 30.1 56.1 19.7 56.3 19.7"/>
              <polygon class="st1" points="56.5 19.7 56.1 30.1 55.9 30.1 56.3 19.7 56.5 19.7"/>
              <polygon class="st1" points="56.6 19.7 56.3 30.1 56.1 30.1 56.5 19.7 56.6 19.7"/>
              <polygon class="st1" points="56.8 19.7 56.5 30.1 56.3 30.1 56.6 19.7 56.8 19.7"/>
              <polygon class="st1" points="57 19.7 56.7 30.1 56.5 30.1 56.8 19.7 57 19.7"/>
              <polygon class="st1" points="57.2 19.7 56.9 30.1 56.7 30.1 57 19.7 57.2 19.7"/>
              <polygon class="st1" points="57.4 19.7 57 30.1 56.9 30.1 57.2 19.7 57.4 19.7"/>
              <polygon class="st1" points="57.6 19.7 57.2 30.1 57 30.1 57.4 19.7 57.6 19.7"/>
              <polygon class="st1" points="57.8 19.7 57.4 30.1 57.2 30.1 57.6 19.7 57.8 19.7"/>
              <polygon class="st1" points="57.9 19.7 57.6 30.1 57.4 30.1 57.8 19.7 57.9 19.7"/>
              <polygon class="st1" points="58.1 19.7 57.8 30.1 57.6 30.1 57.9 19.7 58.1 19.7"/>
              <polygon class="st1" points="58.3 19.7 58 30.1 57.8 30.1 58.1 19.7 58.3 19.7"/>
              <polygon class="st1" points="58.5 19.7 58.2 30.1 58 30.1 58.3 19.7 58.5 19.7"/>
              <polygon class="st1" points="58.7 19.7 58.3 30.1 58.2 30.1 58.5 19.7 58.7 19.7"/>
              <polygon class="st1" points="58.8 20.7 58.5 30.1 58.3 30.1 58.7 19.7 58.8 19.7 58.8 20.7"/>
              <polygon class="st1" points="58.8 26.5 58.7 30.1 58.5 30.1 58.8 20.7 58.8 26.5"/>
              <polygon class="st1" points="58.7 30.1 58.8 26.5 58.8 30.1 58.7 30.1"/>
            </g>
          </g>
        </g>
      </g>
      <g>
        <path class="st1" d="M59.5,28.8c0-.5,0-.9-.1-1.3,0-1.2-.6-2.2-1.6-2.8-2-1.1-2.6-2.9-2.8-5,0-.5.2-.6.6-.7.9-.1,1.8.1,2.5.7,2.2,1.7,3.1,4,2.8,6.8-.1.9-.5,1.7-1.3,2.4h0Z"/>
        <g>
          <path class="st1" d="M59.5,28.8c0-.5,0-.9-.1-1.3,0-1.2-.6-2.2-1.6-2.8-2-1.1-2.6-2.9-2.8-5,0-.5.2-.7.6-.7.9-.1,1.8.1,2.5.7,2.2,1.7,3.1,4,2.8,6.8-.1.9-.5,1.7-1.3,2.4h0Z"/>
          <g class="st0">
            <g>
              <polygon class="st1" points="55 18.9 55 20.6 55 18.9 55 18.9"/>
              <polygon class="st1" points="55.2 18.9 55 26 55 20.6 55 18.9 55.2 18.9"/>
              <polygon class="st1" points="55.4 18.9 55.1 28.8 55 28.8 55 26 55.2 18.9 55.4 18.9"/>
              <polygon class="st1" points="55.6 18.9 55.2 28.8 55.1 28.8 55.4 18.9 55.6 18.9"/>
              <polygon class="st1" points="55.7 18.9 55.4 28.8 55.2 28.8 55.6 18.9 55.7 18.9"/>
              <polygon class="st1" points="55.9 18.9 55.6 28.8 55.4 28.8 55.7 18.9 55.9 18.9"/>
              <polygon class="st1" points="56.1 18.9 55.8 28.8 55.6 28.8 55.9 18.9 56.1 18.9"/>
              <polygon class="st1" points="56.3 18.9 56 28.8 55.8 28.8 56.1 18.9 56.3 18.9"/>
              <polygon class="st1" points="56.5 18.9 56.1 28.8 56 28.8 56.3 18.9 56.5 18.9"/>
              <polygon class="st1" points="56.6 18.9 56.3 28.8 56.1 28.8 56.5 18.9 56.6 18.9"/>
              <polygon class="st1" points="56.8 18.9 56.5 28.8 56.3 28.8 56.6 18.9 56.8 18.9"/>
              <polygon class="st1" points="57 18.9 56.7 28.8 56.5 28.8 56.8 18.9 57 18.9"/>
              <polygon class="st1" points="57.2 18.9 56.8 28.8 56.7 28.8 57 18.9 57.2 18.9"/>
              <polygon class="st1" points="57.3 18.9 57 28.8 56.8 28.8 57.2 18.9 57.3 18.9"/>
              <polygon class="st1" points="57.5 18.9 57.2 28.8 57 28.8 57.3 18.9 57.5 18.9"/>
              <polygon class="st1" points="57.7 18.9 57.3 28.8 57.2 28.8 57.5 18.9 57.7 18.9"/>
              <polygon class="st1" points="57.8 18.9 57.5 28.8 57.3 28.8 57.7 18.9 57.8 18.9"/>
              <polygon class="st1" points="58 18.9 57.7 28.8 57.5 28.8 57.8 18.9 58 18.9"/>
              <polygon class="st1" points="58.2 18.9 57.9 28.8 57.7 28.8 58 18.9 58.2 18.9"/>
              <polygon class="st1" points="58.4 18.9 58 28.8 57.9 28.8 58.2 18.9 58.4 18.9"/>
              <polygon class="st1" points="58.5 18.9 58.2 28.8 58 28.8 58.4 18.9 58.5 18.9"/>
              <polygon class="st1" points="58.7 18.9 58.4 28.8 58.2 28.8 58.5 18.9 58.7 18.9"/>
              <polygon class="st1" points="58.9 18.9 58.6 28.8 58.4 28.8 58.7 18.9 58.9 18.9"/>
              <polygon class="st1" points="59.1 18.9 58.8 28.8 58.6 28.8 58.9 18.9 59.1 18.9"/>
              <polygon class="st1" points="59.2 18.9 58.9 28.8 58.8 28.8 59.1 18.9 59.2 18.9"/>
              <polygon class="st1" points="59.4 18.9 59.1 28.8 58.9 28.8 59.2 18.9 59.4 18.9"/>
              <polygon class="st1" points="59.6 18.9 59.3 28.8 59.1 28.8 59.4 18.9 59.6 18.9"/>
              <polygon class="st1" points="59.8 18.9 59.5 28.8 59.3 28.8 59.6 18.9 59.8 18.9"/>
              <polygon class="st1" points="60 18.9 59.6 28.8 59.5 28.8 59.8 18.9 60 18.9"/>
              <polygon class="st1" points="60.1 18.9 59.8 28.8 59.6 28.8 60 18.9 60.1 18.9"/>
              <polygon class="st1" points="60.3 18.9 60 28.8 59.8 28.8 60.1 18.9 60.3 18.9"/>
              <polygon class="st1" points="60.5 18.9 60.2 28.8 60 28.8 60.3 18.9 60.5 18.9"/>
              <polygon class="st1" points="60.7 18.9 60.3 28.8 60.2 28.8 60.5 18.9 60.7 18.9"/>
              <polygon class="st1" points="60.8 18.9 60.5 28.8 60.3 28.8 60.7 18.9 60.8 18.9"/>
              <polygon class="st1" points="61 18.9 60.7 28.8 60.5 28.8 60.8 18.9 61 18.9"/>
              <polygon class="st1" points="61.2 18.9 60.8 28.8 60.7 28.8 61 18.9 61.2 18.9"/>
              <polygon class="st1" points="60.8 28.8 61.2 18.9 61.2 18.9 61.2 28.8 60.8 28.8"/>
            </g>
          </g>
        </g>
      </g>
    </g>
    <g>
      <g>
        <path class="st1" d="M56.7,11.8c-.2,0-.4-.2-.4-.4V2.8c0-.2.2-.4.4-.4s.4.2.4.4v8.6c0,.2-.2.4-.4.4Z"/>
        <path class="st1" d="M49.3,13.2c-.1,0-.3,0-.3-.2l-3.3-7.9c0-.2,0-.4.2-.5.2,0,.4,0,.5.2l3.3,7.9c0,.2,0,.4-.2.5,0,0,0,0-.1,0Z"/>
        <path class="st1" d="M74.4,23.6c-.1,0-.3,0-.3-.2,0-.2,0-.4.2-.5l7.9-3.3c.2,0,.4,0,.5.2s0,.4-.2.5l-7.9,3.3s0,0-.1,0Z"/>
        <path class="st1" d="M43.1,17.4c0,0-.2,0-.3-.1l-6.1-6.1c-.1-.1-.1-.4,0-.5.1-.1.4-.1.5,0l6.1,6.1c.1.1.1.4,0,.5,0,0-.2.1-.3.1Z"/>
        <path class="st1" d="M70.2,17.4c0,0-.2,0-.3-.1-.1-.1-.1-.4,0-.5l6.1-6.1c.1-.1.4-.1.5,0,.1.1.1.4,0,.5l-6.1,6.1c0,0-.2.1-.3.1Z"/>
        <path class="st1" d="M38.9,23.6s0,0-.1,0l-8-3.3c-.2,0-.3-.3-.2-.5,0-.2.3-.3.5-.2l8,3.3c.2,0,.3.3.2.5,0,.1-.2.2-.3.2Z"/>
        <path class="st1" d="M64,13.2s0,0-.1,0c-.2,0-.3-.3-.2-.5l3.3-7.9c0-.2.3-.3.5-.2.2,0,.3.3.2.5l-3.3,7.9c0,.1-.2.2-.3.2Z"/>
      </g>
      <g>
        <path class="st1" d="M52.5,10.1c-.2,0-.3-.1-.4-.3l-1.9-9.4c0-.2,0-.4.3-.4.2,0,.4,0,.4.3l1.9,9.4c0,.2,0,.4-.3.4h0Z"/>
        <path class="st1" d="M44.8,13.3c-.1,0-.2,0-.3-.2l-5.3-7.9c-.1-.2,0-.4,0-.5.2-.1.4,0,.5,0l5.3,7.9c.1.2,0,.4,0,.5,0,0-.1,0-.2,0h0Z"/>
        <path class="st1" d="M74.4,19.2c-.1,0-.2,0-.3-.2-.1-.2,0-.4,0-.5l7.9-5.3c.2-.1.4,0,.5.1s0,.4,0,.5l-7.9,5.3c0,0-.1,0-.2,0h0Z"/>
        <path class="st1" d="M39,19.1c0,0-.1,0-.2,0l-7.9-5.3c-.2-.1-.2-.3-.1-.5.1-.2.3-.2.5-.1l7.9,5.3c.2.1.2.3,0,.5,0,.1-.2.2-.3.2h0Z"/>
        <path class="st1" d="M68.5,13.3c0,0-.1,0-.2,0-.2-.1-.2-.3,0-.5l5.3-7.9c.1-.2.3-.2.5,0,.2.1.2.3,0,.5l-5.3,7.9c0,.1-.2.2-.3.2h0Z"/>
        <path class="st1" d="M60.8,10.1h0c-.2,0-.3-.2-.3-.4l1.9-9.4c0-.2.2-.3.4-.3.2,0,.3.2.3.4l-1.9,9.4c0,.2-.2.3-.4.3Z"/>
      </g>
      <g>
        <path class="st1" d="M51.5,12.9c-.2,0-.3-.1-.3-.3l-2.3-8.1c0-.2,0-.4.2-.4.2,0,.4,0,.5.2l2.3,8.1c0,.2,0,.4-.2.4,0,0,0,0,0,0h0Z"/>
        <path class="st1" d="M74.7,25.8c-.2,0-.3-.1-.3-.3,0-.2,0-.4.2-.5l8.1-2.3c.2,0,.4,0,.4.2,0,.2,0,.4-.2.5l-8.1,2.3s0,0,0,0h0Z"/>
        <path class="st1" d="M45,16.3c-.1,0-.2,0-.3-.1l-5.2-6.6c-.1-.2,0-.4,0-.5.2-.1.4-.1.5,0l5.2,6.6c.1.2,0,.4,0,.5,0,0-.2,0-.2,0h0Z"/>
        <path class="st1" d="M71.4,19.3c-.1,0-.2,0-.3-.1-.1-.2,0-.4,0-.5l6.6-5.2c.2-.1.4-.1.5,0,.1.2,0,.4,0,.5l-6.6,5.2c0,0-.2,0-.2,0h0Z"/>
        <path class="st1" d="M40.2,21.9c0,0-.1,0-.2,0l-7.4-4.1c-.2-.1-.2-.3-.1-.5,0-.2.3-.2.5-.1l7.4,4.1c.2.1.2.3.1.5,0,.1-.2.2-.3.2Z"/>
        <path class="st1" d="M65.8,14.6c0,0-.1,0-.2,0-.2-.1-.2-.3-.1-.5l4.1-7.4c0-.2.3-.2.5-.1s.2.3.1.5l-4.1,7.4c0,.1-.2.2-.3.2Z"/>
        <path class="st1" d="M58.8,12.3h0c-.2,0-.3-.2-.3-.4l1-8.4c0-.2.2-.3.4-.3.2,0,.3.2.3.4l-1,8.4c0,.2-.2.3-.4.3h0Z"/>
      </g>
      <g>
        <path class="st1" d="M54.7,12.3c-.2,0-.3-.1-.4-.3l-.9-8.4c0-.2.1-.4.3-.4s.4.1.4.3l.9,8.4c0,.2-.1.4-.3.4h0Z"/>
        <path class="st1" d="M47.7,14.5c-.1,0-.3,0-.3-.2l-4-7.4c0-.2,0-.4.2-.5s.4,0,.5.2l4,7.4c0,.2,0,.4-.2.5,0,0-.1,0-.2,0Z"/>
        <path class="st1" d="M73.2,22c-.1,0-.3,0-.3-.2,0-.2,0-.4.2-.5l7.4-4c.2-.1.4,0,.5.1s0,.4-.2.5l-7.4,4c0,0-.1,0-.2,0Z"/>
        <path class="st1" d="M42,19.2c0,0-.2,0-.2,0l-6.6-5.3c-.2-.1-.2-.4,0-.5.1-.2.4-.2.5,0l6.6,5.3c.2.1.2.4,0,.5,0,0-.2.1-.3.1h0Z"/>
        <path class="st1" d="M68.5,16.4c0,0-.2,0-.2,0-.2-.1-.2-.4,0-.5l5.3-6.6c.1-.2.4-.2.5,0,.2.1.2.4,0,.5l-5.3,6.6c0,0-.2.1-.3.1h0Z"/>
        <path class="st1" d="M38.6,25.7s0,0,0,0l-8.1-2.4c-.2,0-.3-.3-.2-.5s.3-.3.5-.2l8.1,2.4c.2,0,.3.3.2.5,0,.2-.2.3-.4.3Z"/>
        <path class="st1" d="M62,13s0,0,0,0c-.2,0-.3-.3-.2-.4l2.4-8.1c0-.2.3-.3.5-.2s.3.3.2.4l-2.4,8.1c0,.2-.2.3-.4.3Z"/>
      </g>
    </g>
  </g>
</svg>